<?xml version="1.0" encoding="UTF-8"?>
<!-- Generated by Pixelmator Pro 3.6.17 -->
<svg width="1000" height="1000" viewBox="0 0 1000 1000" xmlns="http://www.w3.org/2000/svg">
    <path id="people" fill="#000000" fill-rule="evenodd" stroke="none" d="M 236.773178 733.701416 L 450.835266 733.701416 C 450.835266 733.701416 451.703674 697.124634 453.346375 692.270752 C 469.97879 644.666382 518.361694 608.463562 578.031128 600.848572 C 537.406555 563.614746 478.96048 540.270752 413.94458 540.270752 C 312.85199 540.270752 227.636169 596.709106 200.615738 674.045288 C 198.250412 681.034424 197.029465 688.359863 197 695.738403 C 197.036194 713.723755 205.196884 733.701416 236.773178 733.701416 Z M 528.290039 733.701416 L 478.457336 733.701416 C 478.457336 733.701416 468.788696 684.980042 506.118408 654.280579 C 522.698364 640.645386 545.813293 629.467041 566.09137 620.838135 C 590.50885 607.267944 619.809937 599.365601 651.333984 599.365601 C 721.541809 599.365601 780.718506 638.561523 799.488892 692.270752 C 801.131592 697.124634 801.979614 702.212097 802 707.336426 C 801.974854 719.827148 796.312317 733.701416 774.377869 733.701416 L 528.290039 733.701416 Z M 579.767639 487.628357 C 579.767639 530.618347 611.809265 565.467773 651.333984 565.467773 C 690.858704 565.467773 722.90033 530.618347 722.90033 487.628357 C 722.90033 444.638367 690.858704 409.78894 651.333984 409.78894 C 611.809265 409.78894 579.767639 444.638367 579.767639 487.628357 Z M 413.94458 491.461182 C 357.032806 491.461182 310.895905 441.281311 310.895905 379.379883 C 310.895905 317.478455 357.032806 267.298584 413.94458 267.298584 C 470.856354 267.298584 516.993286 317.478455 516.993286 379.379883 C 516.993286 441.281311 470.856354 491.461182 413.94458 491.461182 Z"/>
</svg>
