<?xml version="1.0" encoding="UTF-8"?>
<!-- Generated by Pixelmator Pro 3.6.18 -->
<svg width="1000" height="1000" viewBox="0 0 1000 1000" xmlns="http://www.w3.org/2000/svg">
    <path id="d20" fill="#ffffff" fill-rule="evenodd" stroke="none" d="M 125.361702 725.448975 L 123.516273 722.841553 L 121.319908 719.63269 L 119.033592 716.38147 L 117.893425 712.540161 L 116.981285 710.703491 L 116.915596 568.323364 L 145.890717 597.056396 L 145.865601 618.881775 L 149.058075 619.489868 L 151.648087 617.4375 L 155.629471 606.713745 L 177.433807 628.335938 L 151.499374 697.585632 L 150.878784 701.234192 L 155.757477 703.554504 L 190.54953 709.353821 L 179.075363 720.828003 C 161.19017 717.482544 142.571091 719.022888 125.361702 725.448975 Z M 272.876068 723.076416 L 272.992218 723.095825 L 277.712738 727.776855 L 308.836853 758.024292 L 308.085938 757.89624 L 277.712738 727.776855 L 272.876068 723.076416 Z M 308.231049 798.601196 L 285.144745 818.523621 L 476.007416 928.423828 L 478.439819 929.61615 L 480.163513 930.339294 L 484.116119 932.847656 L 489.588928 934.945679 L 491.717255 936.085815 L 500.534546 936.913269 L 509.351868 936.085815 L 511.480194 934.945679 L 516.953003 932.843262 L 521.855835 929.829834 L 868.996948 729.605103 L 874.683472 724.934692 L 880.881042 716.774414 L 883.17572 709.612244 L 884.087891 707.054932 L 885 500.965973 L 883.17572 290.789978 L 881.304382 284.621216 L 851.105896 314.819702 L 851.250977 314.737488 L 852.619141 313.924194 L 853.987366 466.707031 L 851.779541 619.489868 L 848.9729 616.763916 L 767.130249 398.79541 L 745.293884 420.631714 L 846.690308 691.092529 L 847.573425 696.391113 L 846.332703 702.72229 L 843.625305 704.318481 L 842.129578 705.230652 L 531.54718 755.398132 L 529.821106 756.310303 L 528.042358 755.693848 L 529.110779 753.185486 L 532.71875 747.075012 L 689.330261 476.595337 L 611.091736 554.833862 L 502.453888 743.081543 L 500.923462 745.614258 L 498.94223 744.702087 L 496.898071 740.734741 L 470.597626 695.328003 L 449.74646 716.179199 L 470.198242 751.475159 L 471.490234 754.89563 L 468.638397 756.310303 L 466.329437 755.398132 L 461.312714 754.486023 L 442.63385 751.372559 L 487.291809 794.5 L 484.103821 805.81311 L 486.209534 841.42627 L 485.932434 892.031738 L 482.926849 896.094238 L 479.867065 897.46936 L 478.673035 896.827393 L 476.296753 895.867126 L 461.190674 887.124695 L 456.213745 904.786255 L 406.464142 855.452393 L 308.231049 798.601196 Z M 214.03389 530.606873 L 195.500015 512.708191 L 189.746536 514.820129 L 240.119339 379.141968 L 241.031479 374.040955 L 238.006363 366.569702 L 148.726425 313.709961 L 146.218048 312.526123 L 145.966827 530.890381 L 116.903244 541.558716 L 116.786789 289.14447 L 119.962166 283.767761 L 127.362617 274.052673 L 485.028229 66.730042 L 489.892975 63.770874 L 499.622437 63.086731 L 509.351868 63.802002 L 675.546936 159.509644 L 655.137024 179.523132 L 578.262573 135.202454 L 573.909058 135.704712 L 573.441162 140.215393 L 578.111023 146.098083 L 627.756775 206.371521 L 606.575867 227.140991 L 507.998108 105.169861 L 500.840668 101.677795 L 491.413208 106.790344 L 295.322327 344.966675 C 295.322327 344.966675 416.129028 344.677856 487.268341 344.131104 L 453.739227 377.008972 L 286.835266 377.545715 L 287.984894 380.054077 L 346.90155 481.771423 L 325.871063 502.393433 L 266.478546 399.893066 L 264.747009 396.928589 L 262.986969 399.893066 L 214.03389 530.606873 Z M 777.181396 750.485718 L 521.969788 896.300842 L 517.409058 895.626526 L 514.885254 891.741394 L 513.745056 887.442261 L 514.672668 831.666687 L 516.886597 790.121704 L 521.551575 786.770264 L 773.71936 743.703857 L 779.005615 746.306824 L 777.181396 750.485718 Z M 261.584747 338.157104 L 253.469086 339.4104 L 246.048218 338.270264 L 243.919907 336.499573 L 163.697769 290.110596 L 160.961365 287.040161 L 420.722626 136.057678 L 423.26947 134.233398 L 425.804565 135.536438 L 427.107605 138.968506 L 424.727661 142.884766 L 268.612457 332.456238 L 261.584747 338.157104 Z"/>
    <path id="Sword" fill="#ffffff" fill-rule="evenodd" stroke="none" d="M 246.040039 818.834778 C 249.943481 842.904114 242.615768 868.441162 224.0569 887 C 193.389389 917.667542 143.667511 917.667542 113 887 C 82.332481 856.33252 82.332481 806.610596 113 775.943115 C 132.040878 756.902222 158.427094 749.683472 183.037491 754.286865 L 259.79303 677.53125 L 143.238266 560.976563 L 203.714798 544.48291 L 275.187042 615.9552 L 787.588196 103.554077 L 886.549805 114.549805 L 897.545532 213.511353 L 385.144379 725.912476 L 455.517059 796.285217 L 439.023468 856.761719 L 323.568268 741.306519 L 246.040039 818.834778 Z"/>
</svg>
